<svg width="40" height="40" viewBox="0 0 40 40" fill="none" xmlns="http://www.w3.org/2000/svg">
<g opacity="0.7">
<path d="M20.9052 26.5502L34.1802 12.6177C34.4018 12.3853 34.5254 12.0764 34.5254 11.7552C34.5254 11.4341 34.4018 11.1252 34.1802 10.8927L34.1652 10.8777C34.0577 10.7647 33.9284 10.6746 33.7851 10.6131C33.6417 10.5515 33.4874 10.5198 33.3314 10.5198C33.1754 10.5198 33.0211 10.5515 32.8777 10.6131C32.7344 10.6746 32.6051 10.7647 32.4977 10.8777L19.9977 23.9977L7.50265 10.8777C7.39522 10.7647 7.2659 10.6746 7.12257 10.6131C6.97924 10.5515 6.82489 10.5198 6.6689 10.5198C6.51292 10.5198 6.35857 10.5515 6.21523 10.6131C6.0719 10.6746 5.94258 10.7647 5.83515 10.8777L5.82015 10.8927C5.59854 11.1252 5.47491 11.4341 5.47491 11.7552C5.47491 12.0764 5.59854 12.3853 5.82015 12.6177L19.0952 26.5502C19.2119 26.6728 19.3523 26.7703 19.5079 26.837C19.6634 26.9036 19.8309 26.938 20.0002 26.938C20.1694 26.938 20.3369 26.9036 20.4924 26.837C20.648 26.7703 20.7884 26.6728 20.9052 26.5502Z" fill="black"/>
</g>
</svg>
